<svg width="512" height="512" viewBox="0 0 512 512" fill="none" xmlns="http://www.w3.org/2000/svg">
<path d="M481.594 122.825L448.909 451.034H56.333L30 129.177L252.621 253.819L481.594 122.825Z" fill="#F2F2F2"/>
<path d="M470.507 61L252.621 265.676L34.735 61H252.621H470.507Z" fill="#F2F2F2"/>
<path d="M59.712 155.493V451.017H24.139C10.812 451.017 0 440.206 0 426.878V111.967L39 113.03L59.712 155.493Z" fill="#F14336"/>
<path d="M512 111.967V426.879C512 440.206 501.188 451.018 487.848 451.018H452.288V155.493L471.98 108.968L512 111.967Z" fill="#D32E2A"/>
<path d="M512 85.122V111.967L452.288 155.493L256 298.561L59.712 155.493L0 111.967V85.122C0 71.795 10.812 60.983 24.139 60.983H38.114L256 219.792L473.886 60.983H487.848C501.188 60.983 512 71.794 512 85.122Z" fill="#F14336"/>
<path d="M59.712 155.493L0 146.235V111.967L59.712 155.493Z" fill="#D32E2A"/>
</svg>
