<svg width="21" height="21" viewBox="0 0 21 21" fill="none" xmlns="http://www.w3.org/2000/svg">
<path d="M15.2046 0H5.79512C2.59969 0 0 2.59982 0 5.79524V15.2048C0 18.4003 2.59969 21 5.79512 21H15.2046C18.4003 21 21 18.4002 21 15.2048V5.79524C21.0001 2.59982 18.4003 0 15.2046 0ZM19.1369 15.2048C19.1369 17.3729 17.3729 19.1368 15.2048 19.1368H5.79512C3.62707 19.1369 1.86322 17.3729 1.86322 15.2048V5.79524C1.86322 3.6272 3.62707 1.86322 5.79512 1.86322H15.2046C17.3728 1.86322 19.1368 3.6272 19.1368 5.79524V15.2048H19.1369Z" fill="white"/>
<path d="M10.5 5.08911C7.51624 5.08911 5.08884 7.51652 5.08884 10.5003C5.08884 13.4839 7.51624 15.9112 10.5 15.9112C13.4838 15.9112 15.9112 13.4839 15.9112 10.5003C15.9112 7.51652 13.4838 5.08911 10.5 5.08911ZM10.5 14.0479C8.54375 14.0479 6.95206 12.4564 6.95206 10.5002C6.95206 8.54377 8.54362 6.95221 10.5 6.95221C12.4564 6.95221 14.048 8.54377 14.048 10.5002C14.048 12.4564 12.4563 14.0479 10.5 14.0479Z" fill="white"/>
<path d="M16.1381 3.50916C15.7791 3.50916 15.4265 3.65449 15.173 3.90913C14.9182 4.16253 14.7718 4.5153 14.7718 4.87552C14.7718 5.23462 14.9183 5.58727 15.173 5.84191C15.4264 6.09531 15.7791 6.24188 16.1381 6.24188C16.4983 6.24188 16.8499 6.09531 17.1045 5.84191C17.3591 5.58727 17.5045 5.2345 17.5045 4.87552C17.5045 4.5153 17.3591 4.16253 17.1045 3.90913C16.8511 3.65449 16.4983 3.50916 16.1381 3.50916Z" fill="white"/>
</svg>
