<svg width="21" height="21" viewBox="0 0 21 21" fill="none" xmlns="http://www.w3.org/2000/svg">
<g clip-path="url(#clip0)">
<path d="M3.03334 1.06641C1.5897 1.06641 0.645821 2.01437 0.645821 3.26034C0.645821 4.47879 1.56158 5.4538 2.97794 5.4538H3.00534C4.47722 5.4538 5.39322 4.47879 5.39322 3.26034C5.3657 2.01437 4.47722 1.06641 3.03334 1.06641Z" fill="white"/>
<path d="M0.895294 7.18738H5.11566V19.8845H0.895294V7.18738Z" fill="white"/>
<path d="M15.4747 6.8894C13.1979 6.8894 11.6713 9.02879 11.6713 9.02879V7.18741H7.45079V19.8846H11.671V12.794C11.671 12.4144 11.6986 12.0354 11.8101 11.7639C12.1152 11.006 12.8095 10.2207 13.9754 10.2207C15.5026 10.2207 16.1133 11.3851 16.1133 13.092V19.8846H20.3333V12.6042C20.3333 8.70423 18.2512 6.8894 15.4747 6.8894Z" fill="white"/>
</g>
<defs>
<clipPath id="clip0">
<rect width="21" height="21" fill="white" transform="translate(-0.000183105)"/>
</clipPath>
</defs>
</svg>
