<svg width="27" height="21" viewBox="0 0 27 21" fill="none" xmlns="http://www.w3.org/2000/svg">
<path d="M24.627 0H2.37305C1.06618 0 0 1.08748 0 2.42308V18.5769C0 19.908 1.06144 21 2.37305 21H24.627C25.9305 21 27 19.9162 27 18.5769V2.42308C27 1.092 25.9386 0 24.627 0ZM24.2993 1.61538L13.5503 12.591L2.70838 1.61538H24.2993ZM1.58203 18.2424V2.74987L9.20104 10.4628L1.58203 18.2424ZM2.70069 19.3846L10.3245 11.6001L12.9959 14.3043C13.3051 14.6174 13.8041 14.6164 14.1121 14.3019L16.7168 11.6422L24.2993 19.3846H2.70069ZM25.418 18.2424L17.8355 10.5L25.418 2.75757V18.2424Z" fill="white"/>
</svg>
