<svg width="21" height="21" viewBox="0 0 21 21" fill="none" xmlns="http://www.w3.org/2000/svg">
<path d="M10.5 0C4.73282 0 0 4.73282 0 10.5C0 15.4214 3.45332 19.8919 8.03906 21V17.5262C7.58469 17.6257 7.16652 17.6285 6.70397 17.4922C6.08345 17.3091 5.57925 16.8957 5.20498 16.2654C4.96642 15.863 4.5436 15.4265 4.10252 15.4586L3.99438 14.2329C4.94815 14.1512 5.77327 14.814 6.26305 15.6369C6.48063 16.0028 6.73105 16.2174 7.05244 16.3122C7.36311 16.4037 7.69668 16.3598 8.08537 16.2225C8.18294 15.4443 8.53942 15.153 8.80875 14.7429V14.7422C6.07384 14.3343 4.98388 12.8834 4.55129 11.7382C3.97803 10.2175 4.28565 8.31784 5.29935 7.11733C5.31905 7.09394 5.35462 7.03274 5.34084 6.98996C4.87605 5.58598 5.44242 4.42456 5.46325 4.30135C5.99966 4.45997 6.08681 4.14178 7.79329 5.17854L8.08825 5.35574C8.21162 5.42928 8.17284 5.38731 8.29621 5.37801C9.0087 5.18447 9.7598 5.07761 10.4998 5.06799C11.2455 5.07761 11.9918 5.18447 12.7337 5.38586L12.8292 5.39548C12.8209 5.3942 12.8552 5.38939 12.9127 5.3551C15.0444 4.06391 14.9678 4.48592 15.5395 4.30007C15.5601 4.42344 16.119 5.60376 15.6592 6.98996C15.5972 7.18094 17.5073 8.93003 16.4485 11.7377C16.016 12.8834 14.9262 14.3343 12.1913 14.7422V14.7429C12.5418 15.2772 12.963 15.5614 12.9608 16.6637V21C17.5467 19.8919 20.9998 15.4214 20.9998 10.5C21 4.73282 16.2672 0 10.5 0V0Z" fill="white"/>
</svg>
